<svg xmlns="http://www.w3.org/2000/svg" width="64.969" height="51.75" viewBox="0 0 64.969 51.75">
  <defs>
    <style>
      .cls-1 {
        fill: #2bc3cc;
        fill-rule: evenodd;
      }
    </style>
  </defs>
  <path id="Audio_review_blue" data-name="Audio review blue" class="cls-1" d="M171.576,1429.85v7.96a8.04,8.04,0,0,1-8.123,7.96,4.019,4.019,0,0,1-4.061-3.98v-23.88a20.311,20.311,0,0,0-40.614,0v23.88a4.019,4.019,0,0,1-4.061,3.98,8.04,8.04,0,0,1-8.123-7.96v-7.96a8.04,8.04,0,0,1,8.123-7.96v-3.98a24.373,24.373,0,0,1,48.736,0v3.98A8.04,8.04,0,0,1,171.576,1429.85Z" transform="translate(-106.594 -1394.03)"/>
</svg>
