<svg xmlns="http://www.w3.org/2000/svg" width="47.938" height="52" viewBox="0 0 47.938 52">
  <defs>
    <style>
      .cls-1 {
        fill: #fff;
        fill-rule: evenodd;
      }
    </style>
  </defs>
  <path id="BCC_icon" data-name="BCC icon" class="cls-1" d="M514.439,232.268c-2.806-6.185-9.429-9.695-15.884-10.7-7.577-1.449-15.827-.168-22.226,4.29a19.578,19.578,0,0,0-8.25,12.648c-0.057,2.842-.337,5.74.841,8.414,2.807,7.745,10.777,12.481,18.634,13.818v12.2a3.283,3.283,0,0,0,2.077-.446c7.409-4.9,14.537-10.419,20.206-17.273,2.694-3.4,5.22-7.3,6-11.645C516.067,239.79,516.235,235.778,514.439,232.268Zm-3.48,12.314a27.328,27.328,0,0,1-4.546,7.689,81.5,81.5,0,0,1-15.266,13.818c0.168-2.9.056-5.794,0.112-8.692-6.342-1.17-12.965-3.9-16.726-9.416a12.263,12.263,0,0,1-.617-12.816c3.592-6.8,11.562-10.475,19.083-10.308,5.107,0.167,10.439,1.616,14.2,5.182C511.072,233.605,512.868,239.567,510.959,244.582Z" transform="translate(-468.031 -221)"/>
</svg>
