<svg xmlns="http://www.w3.org/2000/svg" width="16" height="25" viewBox="0 0 16 25">
  <defs>
    <style>
      .cls-1 {
        fill: #ffaf00;
        fill-rule: evenodd;
      }
    </style>
  </defs>
  <path id="bookmark" class="cls-1" d="M950.238,537.99H935.77a0.741,0.741,0,0,0-.762.714v23.587a0.707,0.707,0,0,0,.457.643,0.872,0.872,0,0,0,.838-0.143L943,556.5l6.7,6.289a0.779,0.779,0,0,0,.533.215,0.478,0.478,0,0,0,.3-0.072,0.706,0.706,0,0,0,.457-0.643V538.7A0.741,0.741,0,0,0,950.238,537.99Zm-0.975,22.387-5.726-5.575a0.771,0.771,0,0,0-1.066,0l-5.726,5.575V539.618h12.518v20.759Z" transform="translate(-935 -538)"/>
</svg>
