<svg xmlns="http://www.w3.org/2000/svg" width="38" height="51" viewBox="0 0 38 51">
  <defs>
    <style>
      .cls-1 {
        fill: #fff;
        fill-rule: evenodd;
      }
    </style>
  </defs>
  <path id="CCC_icon" data-name="CCC icon" class="cls-1" d="M512.992,347.8c-4.2-4.23-8.34-8.573-12.538-12.805-8.449,0-16.953.056-25.4,0,0,17.037.055,34.016-.054,51h37.995C512.938,373.244,512.992,360.551,512.992,347.8Zm-35,35.352q0.081-22.464.054-45.094H499.8v10.633c3.489,0.056,6.978-.056,10.412.056-0.055,5.79.327,11.579,0,17.314,0.382,5.679-.273,11.357.273,16.98C499.691,383.377,488.843,383.1,478,383.154Zm17.389-17.2c2.563-3.007,3.762-6.848,4.416-10.689,1.69,0,3.325.111,5.015,0.166V352.98c-3,.223-5.942.39-8.94,0.446a17.1,17.1,0,0,1-1.036-4.065c-0.926.223-1.853,0.5-2.78,0.724a24.726,24.726,0,0,1,1.417,3.285c-3.6.056-7.141-.334-10.684-0.39v2.394c1.581-.056,3.107-0.111,4.688-0.111a21.221,21.221,0,0,0,4.579,10.8c-2.889,1.67-5.942,3.173-9.322,3.284a11.979,11.979,0,0,1,1.963,2.672,31.656,31.656,0,0,0,8.831-4.509,26.17,26.17,0,0,0,9.867,4.509,12.539,12.539,0,0,1,2.4-2.95C502.035,369.347,498.492,367.9,495.384,365.952Zm-1.8-1.393a23.375,23.375,0,0,1-4.143-9.3h8.013C496.747,358.547,496.2,362.221,493.586,364.559Z" transform="translate(-475 -335)"/>
</svg>
