<svg id="Layer_1" data-name="Layer 1" xmlns="http://www.w3.org/2000/svg" width="330.99" height="330.99" viewBox="0 0 330.99 330.99"><defs><style>.cls-1{fill:#9cd8df;}.cls-2{fill:#79c9c7;}.cls-3{fill:#ffd66f;}.cls-4{fill:#f97000;}.cls-5{fill:#f4f4f4;}.cls-6{fill:#545454;}.cls-7{fill:#ff9d27;}.cls-8{fill:#e27d0e;}</style></defs><title>chicken icon</title><circle class="cls-1" cx="165.49" cy="165.49" r="165.49"/><path class="cls-2" d="M856.41,979.51c0-3.84-.14-7.65-0.4-11.43L721.26,882.6l-6.59,6.59-23.75-15.07-17,17-13.37-8.48-17.93,17.93L649.23,912A14.94,14.94,0,0,0,638,926.46l-2.87,17.39a18.84,18.84,0,0,0-6,36.24l-11.69,70.8a14.93,14.93,0,0,0,7.78,13.11l115.64,73.34A165.56,165.56,0,0,0,856.41,979.51Z" transform="translate(-525.43 -813.99)"/><path class="cls-3" d="M632.35,1065.82H749.49a14.94,14.94,0,0,0,14.94-14.94L743.88,926.46a14.94,14.94,0,0,0-14.94-14.94h-76A14.94,14.94,0,0,0,638,926.46l-20.54,124.42A14.94,14.94,0,0,0,632.35,1065.82Z" transform="translate(-525.43 -813.99)"/><path class="cls-4" d="M728.94,911.52a14.92,14.92,0,0,1,4.05.56l6.19-11.55L721.26,882.6l-10.93,10.93-19.41-19.41-19.41,19.41L660.58,882.6l-17.93,17.93,6.19,11.55a14.91,14.91,0,0,1,4.05-.56h76Z" transform="translate(-525.43 -813.99)"/><circle class="cls-5" cx="220.15" cy="148.66" r="18.86"/><circle class="cls-6" cx="220.15" cy="148.66" r="6.14"/><circle class="cls-5" cx="110.84" cy="148.66" r="18.86"/><circle class="cls-6" cx="110.84" cy="148.66" r="6.14"/><path class="cls-7" d="M735.23,1034.57l-2.82-21.34a11.71,11.71,0,0,0-11.71-11.71H661.13a11.71,11.71,0,0,0-11.7,11.71l-2.82,21.34,44.31,16.16Z" transform="translate(-525.43 -813.99)"/><polygon class="cls-4" points="165.49 236.74 151.87 231.77 140.85 257.9 152.15 270.88 165.49 267.29 178.84 270.88 190.13 257.9 179.12 231.77 165.49 236.74"/><rect class="cls-8" x="153.06" y="199.87" width="4.79" height="4.64" rx="0.81" ry="0.81"/><rect class="cls-8" x="173.13" y="199.87" width="4.79" height="4.64" rx="0.81" ry="0.81"/></svg>