<svg xmlns="http://www.w3.org/2000/svg" width="83" height="61" viewBox="0 0 83 61">
  <defs>
    <style>
      .cls-1 {
        fill: #f1f2ec;
        fill-rule: evenodd;
      }
    </style>
  </defs>
  <path id="Course_icon" data-name="Course icon" class="cls-1" d="M366.609,1848.7c-6.15-4.15-12.117-6.17-18.244-6.17s-12.246,2.03-18.668,6.19l-1.22.79-1.2-.81c-6.152-4.15-12.119-6.16-18.246-6.16s-12.245,2.02-18.667,6.18l-3.37,2.19v-53.45l0.98-.63c7-4.54,14.086-6.84,21.054-6.84a36.289,36.289,0,0,1,19.5,6.07c6.6-4.03,13.271-6.07,19.837-6.07,6.981,0,13.947,2.31,20.7,6.86l0.948,0.64v53.5Zm-35.931-5.55a36.878,36.878,0,0,1,17.715-4.84,35.313,35.313,0,0,1,17.268,4.75v-43.29c-5.817-3.72-11.475-5.53-17.282-5.53-5.831,0-11.625,1.82-17.7,5.57v43.34Zm-39.335-.02a36.831,36.831,0,0,1,17.684-4.83,35.315,35.315,0,0,1,17.3,4.79v-43.3c-5.831-3.74-11.5-5.55-17.32-5.55s-11.606,1.82-17.664,5.55v43.34Z" transform="translate(-287 -1790)"/>
</svg>
