<svg xmlns="http://www.w3.org/2000/svg" width="79" height="61" viewBox="0 0 79 61">
  <defs>
    <style>
      .cls-1 {
        fill: #2bc3cc;
        fill-rule: evenodd;
      }
    </style>
  </defs>
  <path id="Dialogue_replay_blue" data-name="Dialogue replay blue" class="cls-1" d="M133.283,1531.01c-17.915,0-30.283,11.1-30.283,24.8,0,10.09,6.7,18.74,17.354,22.63l-3.424,13.55,16.353-11.36c17.916,0,30.284-11.11,30.284-24.82S151.2,1531.01,133.283,1531.01Zm-6.732,37.9,0.992-25.82,21.839,13.77Zm40.746,11.6H167.29c9.037-3.29,14.71-10.63,14.71-19.17,0-10.54-8.643-19.27-21.592-20.78a24.251,24.251,0,0,1,5.352,15.25c0,11.56-7.873,20.98-19.632,24.96a32.362,32.362,0,0,0,10.22,1.59l13.85,9.63Z" transform="translate(-103 -1531)"/>
</svg>
