<svg xmlns="http://www.w3.org/2000/svg" width="72.532" height="60.12" viewBox="0 0 72.532 60.12">
  <defs>
    <style>
      .cls-1 {
        fill: #2bc3cc;
        fill-rule: evenodd;
      }
    </style>
  </defs>
  <path id="Discussion_blue" data-name="Discussion blue" class="cls-1" d="M174.394,1693.38H158.982v-8.27a6.15,6.15,0,0,0-6.066-6.23H112.724a6.15,6.15,0,0,0-6.067,6.23v32.39a6.144,6.144,0,0,0,6.067,6.23h5.2v10.54a2.325,2.325,0,0,0,2.29,2.35,2.263,2.263,0,0,0,1.646-.72h0l11.82-12.17h4.153v0.17a4.857,4.857,0,0,0,4.795,4.92h15.2l9.343,9.62h0a1.78,1.78,0,0,0,1.3.57,1.833,1.833,0,0,0,1.809-1.86v-8.33h4.111a4.856,4.856,0,0,0,4.793-4.92v-25.6A4.856,4.856,0,0,0,174.394,1693.38Zm-19.745,23.87a2.009,2.009,0,0,1-1.979,2.03H132.886a2.158,2.158,0,0,0-1.516.66l-0.016.01-9.078,9.33v-7.88a2.212,2.212,0,0,0-2.15-2.12H112.97a2.007,2.007,0,0,1-1.98-2.03v-31.86a2.007,2.007,0,0,1,1.98-2.03h39.7a2.008,2.008,0,0,1,1.979,2.03v31.86h0Zm19.847,4.58H157.281a6.3,6.3,0,0,0,1.7-4.33v-0.15H174.5v4.48h0Zm0-9.53H158.982v-4.48H174.5v4.48Zm0-9.54H158.982v-4.47H174.5v4.47Zm-58.018-13.78H149.1v4.52H116.478v-4.52Zm0,10.05H149.1v4.53H116.478v-4.53Zm0,10.06H149.1v4.52H116.478v-4.52Z" transform="translate(-106.656 -1678.88)"/>
</svg>
