<svg xmlns="http://www.w3.org/2000/svg" width="68.594" height="69.75" viewBox="0 0 68.594 69.75">
  <defs>
    <style>
      .cls-1 {
        fill: #fff;
        fill-rule: evenodd;
      }
    </style>
  </defs>
  <path id="Home_icon" data-name="Home icon" class="cls-1" d="M106.778,1850.9a6.64,6.64,0,0,0,.05.89H92.668a2.014,2.014,0,0,1-1.994-2.02v-31.01a1.995,1.995,0,1,1,3.989,0v29h12.116v3.14Zm35.55-32.14v31.01a2.014,2.014,0,0,1-2,2.02h-14.16a6.64,6.64,0,0,0,.05-0.89v-3.14h12.116v-29A1.995,1.995,0,1,1,142.328,1818.76Zm6.481-.1a1.938,1.938,0,0,1-1.4-.61L116.5,1786.84l-30.912,31.21a1.908,1.908,0,0,1-2.792,0,1.96,1.96,0,0,1,0-2.82l32.309-32.62a1.909,1.909,0,0,1,2.793,0l32.308,32.62a1.96,1.96,0,0,1,0,2.82A1.649,1.649,0,0,1,148.809,1818.66Zm-31.311,8.76h-2a12.036,12.036,0,0,0-11.966,12.08v12.09a1.34,1.34,0,0,0,.01.2h3.281a6.64,6.64,0,0,1-.05-0.89v-10.71a8.886,8.886,0,0,1,8.835-8.93h1.775a8.886,8.886,0,0,1,8.835,8.93v10.71a6.64,6.64,0,0,1-.05.89h3.281a1.34,1.34,0,0,0,.01-0.2V1839.5A12.036,12.036,0,0,0,117.5,1827.42Z" transform="translate(-82.219 -1782.03)"/>
</svg>
