<svg xmlns="http://www.w3.org/2000/svg" width="68.594" height="69.78" viewBox="0 0 68.594 69.78">
  <defs>
    <style>
      .cls-1 {
        fill: #2bc3cc;
        fill-rule: evenodd;
      }
    </style>
  </defs>
  <path id="Home_icon_active" data-name="Home icon active" class="cls-1" d="M92.664,1816.77a2.005,2.005,0,0,0-1.994,2.01v31.01a2.014,2.014,0,0,0,1.994,2.02H140.33a2.013,2.013,0,0,0,1.994-2.02v-31.01a2,2,0,0,0-1.994-2.01c-1.1,0,.67.23,0.67,0.23s-19.833-19.83-25-25c-3.167,3.17-24,25-24,25S93.761,1816.77,92.664,1816.77Zm56.142,1.91a1.938,1.938,0,0,1-1.4-.61L116.5,1786.86l-30.913,31.21a1.908,1.908,0,0,1-2.792,0,1.96,1.96,0,0,1,0-2.82l32.309-32.62a1.908,1.908,0,0,1,2.792,0l32.309,32.62a1.96,1.96,0,0,1,0,2.82A1.65,1.65,0,0,1,148.806,1818.68ZM116,1828h2a10,10,0,0,1,10,10v12a10,10,0,0,1-10,10h-2a10,10,0,0,1-10-10v-12A10,10,0,0,1,116,1828Z" transform="translate(-82.219 -1782.03)"/>
</svg>
