<?xml version="1.0" standalone="no"?><!DOCTYPE svg PUBLIC "-//W3C//DTD SVG 1.1//EN" "http://www.w3.org/Graphics/SVG/1.1/DTD/svg11.dtd"><svg t="1488966451459" class="icon" style="" viewBox="0 0 1024 1024" version="1.1" xmlns="http://www.w3.org/2000/svg" p-id="7920" xmlns:xlink="http://www.w3.org/1999/xlink" width="64" height="64"><defs><style type="text/css"></style></defs><path d="M512 22.19008c-270.52032 0-489.82016 219.29984-489.82016 489.79968 0 270.53056 219.29984 489.82016 489.82016 489.82016s489.82016-219.2896 489.82016-489.82016C1001.82016 241.48992 782.52032 22.19008 512 22.19008zM511.98976 928.41984C281.99936 928.41984 95.56992 741.98016 95.56992 512c0-229.96992 186.42944-416.41984 416.41984-416.41984S928.43008 282.01984 928.43008 512C928.43008 741.98016 741.98016 928.41984 511.98976 928.41984z" p-id="7921" fill="#ffffff"></path><path d="M607.75424 728.27904c-4.38272 2.304-8.64256 4.90496-12.75904 7.65952-11.48928 7.65952-22.49728 16.128-34.46784 22.96832-6.46144 3.65568-14.35648 5.69344-21.82144 6.56384-8.82688 1.03424-16.35328-10.0864-14.53056-18.08384 8.16128-35.6352 16.29184-71.28064 25.43616-106.68032 15.80032-61.19424 32.47104-122.17344 48.49664-183.31648 3.86048-14.73536 4.7104-29.85984 1.60768-44.92288-2.38592-11.6736-7.46496-21.76-19.456-26.20416-9.75872-3.60448-20.04992-3.08224-29.14304 1.24928-16.06656 7.64928-32.512 15.18592-47.04256 25.30304-34.18112 23.78752-67.33824 49.05984-100.87424 73.79968-8.11008 5.98016-16.0768 12.16512-24.70912 18.71872 3.34848 5.74464 6.28736 11.22304 9.6768 16.39424 2.22208 3.40992 7.97696 3.86048 11.10016 1.61792 9.58464-6.84032 18.8416-14.27456 28.9792-20.19328 11.69408-6.83008 23.9616-12.81024 36.41344-18.176 8.09984-3.49184 17.89952 0.64512 18.59584 7.03488 0.6144 5.62176 0.83968 11.6224-0.4608 17.02912-12.3392 51.47648-25.38496 102.79936-37.55008 154.32704-9.34912 39.48544-18.21696 79.14496-26.25536 118.92736-3.33824 16.49664 1.3824 32.04096 12.032 45.55776 11.20256 14.22336 31.6416 19.79392 48.18944 12.66688 30.94528-13.33248 59.27936-31.27296 87.27552-49.74592 20.43904-13.48608 40.4992-27.58656 61.35808-41.84064-2.80576-6.0416-5.08928-11.4688-7.81312-16.64C617.2672 726.95808 612.90496 725.56544 607.75424 728.27904z" p-id="7922" fill="#ffffff"></path><path d="M606.48448 182.26176c-11.52-2.73408-23.13216-2.8672-34.10944 2.06848-27.82208 12.48256-38.81984 35.86048-41.29792 62.3104 0.43008 14.4384 3.21536 25.7536 10.82368 35.33824 11.14112 13.99808 25.77408 19.49696 43.6224 18.55488 15.24736-0.79872 28.09856-6.97344 38.44096-17.09056 20.25472-19.80416 27.05408-43.60192 16.88576-71.0144C634.8288 196.21888 623.16544 186.24512 606.48448 182.26176z" p-id="7923" fill="#ffffff"></path></svg>