<svg xmlns="http://www.w3.org/2000/svg" width="51.031" height="41" viewBox="0 0 51.031 41">
  <defs>
    <style>
      .cls-1 {
        fill: #fff;
        fill-rule: evenodd;
      }
    </style>
  </defs>
  <path id="ICC_Icon" data-name="ICC Icon" class="cls-1" d="M515.8,465.828c-2.908-4.749-8.829-6.993-14.23-6.785-0.052-2.244-1.454-4.227-2.856-5.845-4-4.123-10.023-5.427-15.528-5.166-6.752.261-13.815,4.018-16.36,10.542a12.859,12.859,0,0,0,1.351,11.794c2.8,4.332,7.686,6.837,12.62,7.776,0.051,3.131,0,6.263,0,9.394,1.713-.052,2.908-1.462,4.31-2.3,2.285-1.775,4.83-3.288,6.648-5.584a16.693,16.693,0,0,0,6.907,2.974,16.788,16.788,0,0,0,3.272,3.915c2.025,1.774,4.83,2.139,7.374,2.452,0.26-.261.675-0.678,0.935-0.887,0.26-1.1-1.039-1.409-1.662-1.983a6.39,6.39,0,0,1-2.6-3.549c4.674-1.1,9.5-4.07,10.854-8.976C517.1,470.994,517.307,468.124,515.8,465.828Zm-27.577.261a10.06,10.06,0,0,0,1.454,11.794c-2.181,1.462-4.1,3.288-6.284,4.8,0.052-2.245.052-4.436,0.052-6.68-4.1-.887-8.257-2.4-11.269-5.48a9.915,9.915,0,0,1-2.909-9.028,13.173,13.173,0,0,1,6.8-8.664,18.51,18.51,0,0,1,16.567-.261,12.828,12.828,0,0,1,6.076,6.732C494.56,460.087,490.405,462.28,488.224,466.089Z" transform="translate(-466 -448)"/>
</svg>
