<svg xmlns="http://www.w3.org/2000/svg" width="19" height="19" viewBox="0 0 19 19">
  <defs>
    <style>
      .cls-1 {
        fill: #91918f;
        fill-rule: evenodd;
      }
    </style>
  </defs>
  <path id="info" class="cls-1" d="M692.5,851a9.5,9.5,0,1,0,9.5,9.5A9.5,9.5,0,0,0,692.5,851Zm2.086,8.576c-0.091.437-1.413,2.848-1.8,3.663a3.219,3.219,0,0,0-.557,1.657,1.107,1.107,0,0,0,.912.761,0.571,0.571,0,0,1,.5.262,0.14,0.14,0,0,1-.138.14s-2.936,0-2.936,0a0.829,0.829,0,0,1-.835-0.713,2.432,2.432,0,0,1,.447-1.289c0.41-.858.876-1.69,1.283-2.549,0.147-.311.283-0.626,0.433-0.934a1.329,1.329,0,0,0,.211-1,1.24,1.24,0,0,0-.924-0.643,0.573,0.573,0,0,1-.5-0.261,0.14,0.14,0,0,1,.138-0.141s2.935,0,2.935,0a0.848,0.848,0,0,1,.849.773A1.138,1.138,0,0,1,694.586,859.576Zm-0.672-1.922a1.358,1.358,0,1,1,1.357-1.358A1.357,1.357,0,0,1,693.914,857.654Z" transform="translate(-683 -851)"/>
</svg>
