<svg xmlns="http://www.w3.org/2000/svg" width="23" height="28" viewBox="0 0 23 28">
  <defs>
    <style>
      .cls-1 {
        fill: #00b2b7;
        fill-rule: evenodd;
      }
    </style>
  </defs>
  <path id="Lecture_notes_icon" data-name="Lecture notes icon" class="cls-1" d="M933.221,711a0.221,0.221,0,0,0-.221.219V725h23v-7h-6.856a0.22,0.22,0,0,1-.221-0.218V711h-15.7Zm16.587,0v6.125H956Zm-14.375,16.788v5.087h1.327v-1.668h0.829a2.524,2.524,0,0,0,.941-0.137,2.044,2.044,0,0,0,.663-0.464,1.506,1.506,0,0,0,.359-0.547,1.832,1.832,0,0,0,.111-0.656,1.653,1.653,0,0,0-.166-0.766,1.347,1.347,0,0,0-.47-0.52,1.806,1.806,0,0,0-.58-0.245,3.45,3.45,0,0,0-.83-0.083h-2.184Zm5.169,0v5.087h1.825a5.387,5.387,0,0,0,1.051-.083,2.583,2.583,0,0,0,.83-0.328,2.346,2.346,0,0,0,.83-0.848,2.535,2.535,0,0,0,.332-1.285,2.572,2.572,0,0,0-.305-1.285,2.289,2.289,0,0,0-.83-0.875,2.55,2.55,0,0,0-.774-0.274,4.745,4.745,0,0,0-1.078-.11H940.6Zm5.888,0v5.087h1.327v-2.188H950V729.7h-2.184v-0.93h2.35v-0.985H946.49Zm-9.73.958h0.221c0.218,0,.393-0.007.525,0a1.238,1.238,0,0,1,.415.082,0.644,0.644,0,0,1,.277.219,0.619,0.619,0,0,1,.111.383,0.932,0.932,0,0,1-.056.355,0.686,0.686,0,0,1-.194.274,0.764,0.764,0,0,1-.359.164,3.157,3.157,0,0,1-.553.028H936.76v-1.5h0Zm5.169,0h0.332a4.221,4.221,0,0,1,.636.027,1.671,1.671,0,0,1,.442.136,1.244,1.244,0,0,1,.581.547,2.019,2.019,0,0,1,0,1.723,1.264,1.264,0,0,1-.526.547,1.656,1.656,0,0,1-.442.164,4.6,4.6,0,0,1-.691.027h-0.332v-3.171ZM933,735.5v3.282a0.22,0.22,0,0,0,.221.219h22.558a0.22,0.22,0,0,0,.221-0.219V735.5H933Z" transform="translate(-933 -711)"/>
</svg>
