<svg xmlns="http://www.w3.org/2000/svg" width="58" height="71" viewBox="0 0 58 71">
  <defs>
    <style>
      .cls-1 {
        fill: #f1f2ec;
        fill-rule: evenodd;
      }
    </style>
  </defs>
  <path id="Me_icon" data-name="Me icon" class="cls-1" d="M964.91,1823.53c-8.71,0-15.8-6.55-15.8-14.6v-9.33a13.752,13.752,0,0,1,4.525-10.28,16.273,16.273,0,0,1,11.184-4.32h0.26c8.757,0,15.882,6.55,15.882,14.6v9.25c0,8.1-7.086,14.68-15.8,14.68H964.91Zm-0.087-35.34c-6.8,0-12.343,5.12-12.343,11.41v9.25c0,6.29,5.538,11.41,12.343,11.41h0.26c6.806,0,12.343-5.12,12.343-11.41v-9.25a10.738,10.738,0,0,0-3.531-8.02,12.741,12.741,0,0,0-8.726-3.39h-0.346ZM940.051,1856a3.916,3.916,0,0,1-4.057-3.75v-6.46c0-9.81,8.635-17.79,19.249-17.79H974.75c10.613,0,19.249,7.98,19.249,17.79v6.46a3.916,3.916,0,0,1-4.057,3.75H940.051Zm15.192-24.81c-8.71,0-15.8,6.55-15.8,14.6v6.46a0.547,0.547,0,0,0,.605.56h49.891a0.547,0.547,0,0,0,.6-0.56v-6.46c0-8.05-7.086-14.6-15.8-14.6H955.243Z" transform="translate(-936 -1785)"/>
</svg>
