<svg id="More" xmlns="http://www.w3.org/2000/svg" width="95.562" height="60.344" viewBox="0 0 95.562 60.344">
  <defs>
    <style>
      .cls-1 {
        fill: #2bc3cc;
        fill-rule: evenodd;
      }
    </style>
  </defs>
  <path id="Ellipse_2_copy_2" data-name="Ellipse 2 copy 2" class="cls-1" d="M957.267,802.11a9.792,9.792,0,1,1-9.838,9.792A9.815,9.815,0,0,1,957.267,802.11Zm37.947,0a9.792,9.792,0,1,1-9.837,9.792A9.812,9.812,0,0,1,995.214,802.11Zm37.936,0a9.792,9.792,0,1,1-9.85,9.792A9.821,9.821,0,0,1,1033.15,802.11Z" transform="translate(-947.438 -802.125)"/>
  <path id="More-2" data-name="More" class="cls-1" d="M978.272,837.215h-3.581l-8.111,14.4-1.163,3.015h-0.061l-1.224-3.015-8.019-14.4h-3.7V862.17h4.438V846.815h0.061l1.01,2.585,7.345,13.078h0.123l7.345-13.078,1.041-2.646h0.061V862.17h4.438V837.215Zm19.833,15.232c0,3.6-1.652,6.154-5.509,6.154s-5.539-2.585-5.539-6.154c0-3.6,1.652-6.155,5.509-6.155S998.105,848.877,998.105,852.447Zm4.345,0c0-5.693-3.273-10-9.884-10s-9.855,4.339-9.855,10,3.244,10,9.855,10C999.146,862.447,1002.45,858.078,1002.45,852.447Zm15.58-9.909h-1.04a6.33,6.33,0,0,0-5.69,3.077h-0.06v-2.861h-4.35V862.14h4.35v-9.6c0-4.062,1.83-5.724,5.44-5.724h1.35v-4.277Zm6.49,8.062,0.43-.431a4.964,4.964,0,0,1,5.29-3.907c2.88,0,4.59,1.323,5.27,3.907l0.4,0.431h-11.39Zm15.55,2c0-5.723-3.15-10.154-9.8-10.154-6.33,0-9.94,4.308-9.94,10.154,0,5.539,3.18,9.847,10.07,9.847a11.567,11.567,0,0,0,8.08-3.046l-2.88-2.893a7.409,7.409,0,0,1-5.17,2.154c-3.06,0-4.9-1.415-5.51-3.908l-0.43-.43h15.49C1040.04,853.708,1040.07,853.031,1040.07,852.6Z" transform="translate(-947.438 -802.125)"/>
</svg>
