<svg xmlns="http://www.w3.org/2000/svg" width="80" height="66" viewBox="0 0 80 66">
  <defs>
    <style>
      .cls-1 {
        fill: #f1f2ec;
        fill-rule: evenodd;
      }
    </style>
  </defs>
  <path id="Resources_icon" data-name="Resources icon" class="cls-1" d="M794.987,1809.71v-0.36a0.161,0.161,0,0,0-.088-0.17,0.181,0.181,0,0,0-.088-0.18c0-.09-0.089-0.09-0.089-0.18s-0.088-.09-0.088-0.17a0.087,0.087,0,0,0-.088-0.09l-0.088-.09-0.089-.09c-0.088,0-.088-0.09-0.176-0.09s-0.089-.09-0.177-0.09-0.088-.09-0.176-0.09h-8.83c0-.17.089-0.26,0.089-0.44a10.259,10.259,0,0,0-10.242-10.26H748.9v-5.14a6.3,6.3,0,0,0-6.269-6.28H721.264a6.3,6.3,0,0,0-6.269,6.28v51.6a8.174,8.174,0,0,0,1.589,4.78,0.081,0.081,0,0,0,.088.08,8.058,8.058,0,0,0,6.534,3.28h51.739c5.651-.09,8.918-4.78,10.065-9.12h0l9.977-32.56v-0.62h0Zm-13.508-2.13a0.827,0.827,0,0,0,.088.45h-52.18a0.183,0.183,0,0,0-.177.08,0.176,0.176,0,0,0-.177.09c-0.088,0-.088.09-0.176,0.09a0.088,0.088,0,0,0-.089.09c-0.088,0-.088.09-0.176,0.09l-0.088.09c0,0.09-.089.09-0.089,0.17a0.316,0.316,0,0,0-.088.18c0,0.09-.088.09-0.088,0.18s-0.089.09-.089,0.17v0.09l-9.712,30.62v-39.11h56.331A6.714,6.714,0,0,1,781.479,1807.58Zm-60.215-18.14H742.63a2.754,2.754,0,0,1,2.737,2.74v5.14h-26.84v-5.14A2.7,2.7,0,0,1,721.264,1789.44Zm53.505,58.94H723.118a4.527,4.527,0,0,1-3.179-1.33l11.213-35.48h59.774l-9.359,30.26v0.09h0C781.214,1843.42,779.536,1848.38,774.769,1848.38Z" transform="translate(-715 -1786)"/>
</svg>
