<svg xmlns="http://www.w3.org/2000/svg" width="56.969" height="67" viewBox="0 0 56.969 67">
  <defs>
    <style>
      .cls-1 {
        fill: #2bc3cc;
        fill-rule: evenodd;
      }
    </style>
  </defs>
  <path id="Review_icon_active" data-name="Review icon active" class="cls-1" d="M540.492,1850.99a28.016,28.016,0,0,1-20.143-8.51,29.468,29.468,0,0,1,0-41.09,28.033,28.033,0,0,1,20.137-8.52c0.414,0,.832.01,1.248,0.03l-4.984-5.08a2.267,2.267,0,0,1,0-3.16,2.167,2.167,0,0,1,3.1,0l10.165,10.37-0.042.04a2.256,2.256,0,0,1,.248,1.83,1.927,1.927,0,0,1-.245.54l0.035,0.04-0.337.36-9.824,10.02a2.167,2.167,0,0,1-3.1,0,2.268,2.268,0,0,1,0-3.16l6.986-7.13a23.816,23.816,0,0,0-20.292,6.98,24.935,24.935,0,0,0,0,34.77,23.8,23.8,0,0,0,34.094,0,24.963,24.963,0,0,0,0-34.77,2.268,2.268,0,0,1-.642-1.58,2.233,2.233,0,0,1,.642-1.58,2.145,2.145,0,0,1,3.1,0,29.5,29.5,0,0,1,0,41.09A28.013,28.013,0,0,1,540.492,1850.99Z" transform="translate(-512 -1784)"/>
</svg>
