<svg xmlns="http://www.w3.org/2000/svg" width="18" height="13" viewBox="0 0 18 13">
  <defs>
    <style>
      .cls-1 {
        fill: #91918f;
        fill-rule: evenodd;
      }
    </style>
  </defs>
  <path id="Sort" class="cls-1" d="M139.1,1085.87h-9.9a0.759,0.759,0,0,0-.9.65v1.95a0.759,0.759,0,0,0,.9.65h9.9a0.759,0.759,0,0,0,.9-0.65v-1.95A0.807,0.807,0,0,0,139.1,1085.87Zm0,4.88h-3.6a0.759,0.759,0,0,0-.9.65v1.95a0.759,0.759,0,0,0,.9.65h3.6a0.759,0.759,0,0,0,.9-0.65v-1.95A0.759,0.759,0,0,0,139.1,1090.75Zm0-9.75H122.9a0.759,0.759,0,0,0-.9.65v1.95a0.759,0.759,0,0,0,.9.65h16.2a0.759,0.759,0,0,0,.9-0.65v-1.95A0.759,0.759,0,0,0,139.1,1081Z" transform="translate(-122 -1081)"/>
</svg>
