<svg xmlns="http://www.w3.org/2000/svg" width="21" height="18" viewBox="0 0 21 18">
  <defs>
    <style>
      .cls-1 {
        fill: #00b2b7;
        fill-rule: evenodd;
      }
    </style>
  </defs>
  <path id="Vote_icon" data-name="Vote icon" class="cls-1" d="M734.467,1073a0.213,0.213,0,0,0-.114.03c-0.018.01-.042-0.01-0.057,0a0.98,0.98,0,0,0-.342,0,1.232,1.232,0,0,0-.286.11c-0.681.35-.823,1.51-1.056,2.29a6.772,6.772,0,0,1-4.566,4.67c-0.528.02-1.04,0.02-1.569,0.02v-0.39a0.438,0.438,0,0,0-.457-0.44H721v10.72h5.022a0.505,0.505,0,0,0,.457-0.44v-8.47c0.3,0,.609-0.02.913-0.03v8.05c0.255,0.01.516-.01,0.771,0,1.365,0.27,2.369,1.44,3.766,1.62a41.08,41.08,0,0,0,4.709.17c1.146-.09,2.555.09,3.367-0.9,0.348-.8.038-1.87,1.085-2.23,0.939-.63-0.211-1.8.257-2.6a1.644,1.644,0,0,0,.285-2.32c-0.871-.8.312-2.04-0.685-2.85a1.451,1.451,0,0,0-.514-0.3,2.257,2.257,0,0,0-.57-0.17c-0.019,0-.038-0.03-0.057-0.03a3.251,3.251,0,0,0-.6-0.06c-0.874-.06-1.75-0.04-2.625-0.02-0.358-.02-0.728-0.02-1.084-0.06-0.7-.54.165-1.52,0.142-2.23a7.248,7.248,0,0,0-.057-2.94,1.785,1.785,0,0,0-.885-1.09c-0.042-.02-0.073-0.03-0.114-0.05A0.742,0.742,0,0,0,734.467,1073Z" transform="translate(-721 -1073)"/>
</svg>
